<svg width="29" height="20" viewBox="0 0 29 20" fill="none" xmlns="http://www.w3.org/2000/svg">
<path d="M19.1255 19.1249C18.6474 19.1249 18.3286 18.9655 18.0099 18.6468C17.3724 18.0093 17.3724 17.053 18.0099 16.4155L25.9786 8.44687C26.6161 7.80938 27.5723 7.80938 28.2098 8.44687C28.8473 9.08436 28.8473 10.0406 28.2098 10.6781L20.2411 18.6468C19.9224 18.9655 19.6036 19.1249 19.1255 19.1249Z" fill="white"/>
<path d="M27.0942 11.1561C26.6161 11.1561 26.2973 10.9968 25.9786 10.678L18.0099 2.70935C17.3724 2.07186 17.3724 1.11561 18.0099 0.478121C18.6474 -0.159373 19.6036 -0.159374 20.2411 0.478121L28.2098 8.4468C28.8473 9.08429 28.8473 10.0405 28.2098 10.678C27.891 10.9968 27.5723 11.1561 27.0942 11.1561Z" fill="white"/>
<path d="M27.0935 11.1562H1.59374C0.637494 11.1562 0 10.5187 0 9.56248C0 8.60624 0.637494 7.96875 1.59374 7.96875H27.0935C28.0497 7.96875 28.6872 8.60624 28.6872 9.56248C28.6872 10.5187 28.0497 11.1562 27.0935 11.1562Z" fill="white"/>
</svg>
