<svg width="70" height="70" viewBox="0 0 70 70" fill="none" xmlns="http://www.w3.org/2000/svg">
<circle cx="35" cy="35" r="34.5" stroke="#FEFF05"/>
<path d="M39.9125 44.9022C39.4344 44.9022 39.1156 44.7429 38.7969 44.4241C38.1594 43.7866 38.1594 42.8304 38.7969 42.1929L46.7656 34.2242C47.403 33.5867 48.3593 33.5867 48.9968 34.2242C49.6343 34.8617 49.6343 35.8179 48.9968 36.4554L41.0281 44.4241C40.7094 44.7429 40.3906 44.9022 39.9125 44.9022Z" fill="white"/>
<path d="M47.8812 36.9335C47.403 36.9335 47.0843 36.7741 46.7656 36.4554L38.7969 28.4867C38.1594 27.8492 38.1594 26.893 38.7969 26.2555C39.4344 25.618 40.3906 25.618 41.0281 26.2555L48.9968 34.2241C49.6343 34.8616 49.6343 35.8179 48.9968 36.4554C48.678 36.7741 48.3593 36.9335 47.8812 36.9335Z" fill="white"/>
<path d="M47.8805 36.9336H22.3807C21.4245 36.9336 20.787 36.2961 20.787 35.3398C20.787 34.3836 21.4245 33.7461 22.3807 33.7461H47.8805C48.8367 33.7461 49.4742 34.3836 49.4742 35.3398C49.4742 36.2961 48.8367 36.9336 47.8805 36.9336Z" fill="white"/>
</svg>
