<svg width="1440" height="273" viewBox="0 0 1440 273" fill="none" xmlns="http://www.w3.org/2000/svg">
<path d="M215.548 102.378C231.043 105.514 242.757 110.956 250.689 118.704C258.621 126.267 262.587 137.15 262.587 151.354V152.461C262.587 173.306 253.917 188.063 236.577 196.733C219.422 205.218 194.704 209.553 162.422 209.738H0V4.98058H175.15C196.548 5.16504 213.611 9.59222 226.339 18.2621C239.068 26.932 245.432 39.199 245.432 55.063V56.1698C245.432 68.1601 242.941 77.9368 237.961 85.4999C232.98 93.063 225.509 98.6892 215.548 102.378ZM143.053 85.2232C152.276 85.2232 159.009 85.0387 163.252 84.6698C167.679 84.1164 171.369 82.4562 174.32 79.6892C177.456 76.9222 179.024 72.3106 179.024 65.8543C179.024 59.9514 177.548 55.7086 174.597 53.1261C171.645 50.5436 167.864 48.9757 163.252 48.4223C158.641 47.6844 151.908 47.3155 143.053 47.3155H63.9174V84.9465C82.9174 84.9465 95.461 85.0387 101.548 85.2232H143.053ZM152.184 163.529C162.514 163.529 170.262 163.252 175.427 162.699C180.592 161.961 184.742 160.116 187.878 157.165C191.014 154.029 192.582 149.141 192.582 142.5C192.582 136.043 191.014 131.432 187.878 128.665C184.742 125.713 180.592 123.961 175.427 123.408C170.262 122.67 162.514 122.301 152.184 122.301H63.9174V163.252C89.927 163.252 108.374 163.344 119.257 163.529C130.325 163.529 137.888 163.529 141.946 163.529H152.184Z" fill="white"/>
<path d="M372.635 52.5727C392.557 52.5727 410.543 56.0776 426.591 63.0873C442.64 70.097 455.184 79.8737 464.222 92.4173C473.261 104.777 477.781 118.704 477.781 134.199C477.781 149.509 473.169 163.437 463.946 175.98C454.907 188.34 442.363 198.024 426.315 205.034C410.451 212.043 392.557 215.548 372.635 215.548C353.451 215.548 335.465 212.043 318.679 205.034C301.893 197.84 288.427 188.063 278.281 175.704C268.32 163.16 263.339 149.325 263.339 134.199C263.339 118.888 268.32 105.053 278.281 92.694C288.427 80.1504 301.8 70.3737 318.402 63.364C335.189 56.1698 353.266 52.5727 372.635 52.5727ZM372.635 175.98C380.014 175.98 386.839 174.412 393.111 171.276C399.567 168.141 404.732 163.437 408.606 157.165C412.48 150.709 414.417 143.053 414.417 134.199C414.417 125.344 412.48 117.781 408.606 111.51C404.732 105.053 399.567 100.257 393.111 97.1212C386.839 93.9853 380.014 92.4173 372.635 92.4173C365.441 92.4173 358.339 94.0775 351.329 97.3979C344.504 100.534 338.878 105.238 334.451 111.51C330.024 117.781 327.81 125.344 327.81 134.199C327.81 143.053 330.024 150.616 334.451 156.888C338.878 163.16 344.504 167.956 351.329 171.276C358.339 174.412 365.441 175.98 372.635 175.98Z" fill="white"/>
<path d="M584.828 52.5727C604.751 52.5727 622.736 56.0776 638.785 63.0873C654.833 70.097 667.377 79.8737 676.416 92.4173C685.454 104.777 689.974 118.704 689.974 134.199C689.974 149.509 685.362 163.437 676.139 175.98C667.1 188.34 654.557 198.024 638.508 205.034C622.644 212.043 604.751 215.548 584.828 215.548C565.644 215.548 547.659 212.043 530.872 205.034C514.086 197.84 500.62 188.063 490.474 175.704C480.513 163.16 475.532 149.325 475.532 134.199C475.532 118.888 480.513 105.053 490.474 92.694C500.62 80.1504 513.994 70.3737 530.595 63.364C547.382 56.1698 565.46 52.5727 584.828 52.5727ZM584.828 175.98C592.207 175.98 599.032 174.412 605.304 171.276C611.76 168.141 616.925 163.437 620.799 157.165C624.673 150.709 626.61 143.053 626.61 134.199C626.61 125.344 624.673 117.781 620.799 111.51C616.925 105.053 611.76 100.257 605.304 97.1212C599.032 93.9853 592.207 92.4173 584.828 92.4173C577.634 92.4173 570.532 94.0775 563.523 97.3979C556.697 100.534 551.071 105.238 546.644 111.51C542.217 117.781 540.003 125.344 540.003 134.199C540.003 143.053 542.217 150.616 546.644 156.888C551.071 163.16 556.697 167.956 563.523 171.276C570.532 174.412 577.634 175.98 584.828 175.98Z" fill="white"/>
<path d="M791.211 120.087C796.561 120.087 800.619 119.995 803.386 119.811L819.158 119.534C840.924 119.534 858.541 122.393 872.007 128.111C885.657 133.645 892.483 144.806 892.483 161.592C892.483 183.359 882.337 197.932 862.046 205.31C841.939 212.505 818.881 216.102 792.871 216.102C767.046 216.102 743.342 212.32 721.76 204.757C700.362 197.009 689.663 182.252 689.663 160.485H753.857C753.857 169.155 757.638 174.966 765.201 177.917C772.764 180.684 781.988 182.068 792.871 182.068C805.23 182.068 814.362 180.592 820.264 177.641C826.352 174.505 829.395 169.524 829.395 162.699C829.395 156.611 825.891 152.83 818.881 151.354C811.871 149.694 803.017 148.864 792.318 148.864H782.633C765.847 148.864 750.905 148.034 737.808 146.374C724.896 144.529 713.643 140.286 704.051 133.645C694.459 127.005 689.663 117.044 689.663 103.762C689.663 82.7329 699.993 68.9902 720.653 62.5339C741.497 56.0776 765.478 52.8494 792.595 52.8494C818.235 52.8494 841.293 56.631 861.769 64.1941C882.245 71.7572 892.483 86.4222 892.483 108.189L828.842 107.912C828.842 98.5047 824.046 92.694 814.454 90.4804C804.861 88.2669 797.298 87.1601 791.764 87.1601C783.279 87.1601 774.794 88.1746 766.308 90.2038C758.007 92.0484 753.857 96.2911 753.857 102.932C753.857 114 766.308 119.718 791.211 120.087Z" fill="white"/>
<path d="M986.759 58.9368H1015.54V102.378H986.759V209.738H923.118V102.378H892.958V58.9368H923.118V26.2864L986.759 0.55339V58.9368Z" fill="white"/>
<path d="M1253.59 58.9368L1160.62 243.771C1154.53 255.946 1142.72 263.786 1125.2 267.291C1107.86 270.796 1088.31 272.548 1066.54 272.548V221.912C1077.05 221.912 1084.34 221.267 1088.4 219.975C1092.46 218.684 1094.49 216.839 1094.49 214.441C1094.49 213.704 1094.12 212.412 1093.38 210.568L1015.63 58.9368H1083.69L1135.16 170.446L1185.52 58.9368H1253.59Z" fill="white"/>
<path d="M1371.61 76.6455V120.087H1340.34V209.738H1276.7V120.087H1246.82V76.6455H1276.7V56.7232C1276.7 34.7718 1284.45 19.8301 1299.95 11.898C1315.44 3.96601 1332.87 0 1352.24 0C1359.07 0 1365.15 0.368932 1370.5 1.1068V51.7426C1361.28 51.7426 1354.64 52.296 1350.58 53.4028C1346.52 54.5096 1343.76 56.7232 1342.28 60.0436C1340.99 63.1795 1340.34 68.3446 1340.34 75.5387V76.6455H1371.61Z" fill="white"/>
<path d="M1440 4.98058H1376.36V46.7621H1440V4.98058ZM1440 209.738H1376.36V54.7863H1440V209.738Z" fill="white"/>
</svg>
