<svg width="27" height="27" viewBox="0 0 27 27" fill="none" xmlns="http://www.w3.org/2000/svg">
<path d="M14.0875 23.5473C13.6408 24.6439 13.3028 25.7995 13.0884 27C12.874 25.7995 12.536 24.6439 12.0894 23.5473H14.0875ZM3.99494 14.8286C7.62941 16.5997 10.527 19.7114 12.0894 23.5473H8.42051C5.97636 23.5473 3.99494 21.5035 3.99494 18.9826V14.8286ZM21.0332 15.4468C21.7498 16.3581 22.1821 17.4729 22.1821 18.5278C22.1821 21.246 19.933 23.5473 17.329 23.5473H14.0875C15.4815 20.1248 17.9383 17.2785 21.0332 15.4468ZM21.1144 11.6006C22.662 12.5045 24.3669 13.156 26.1769 13.4999C24.3352 13.8498 22.6023 14.5181 21.0332 15.4468C20.1443 14.3163 18.8178 13.499 17.3352 13.499C18.8634 13.499 20.226 12.7537 21.1144 11.6006ZM3.99494 14.8286C2.74252 14.2183 1.40291 13.7665 0 13.4999C1.40293 13.2333 2.74251 12.7815 3.99494 12.1712V14.8286ZM12.0862 3.46027C10.523 7.2926 7.62697 10.4012 3.99494 12.1712V8.02983C3.99494 5.50885 5.97636 3.46514 8.42051 3.46514C9.64228 3.46514 10.8642 3.46274 12.0862 3.46027ZM17.3352 3.45274C20.0121 3.45274 22.1821 5.69102 22.1821 8.45207C22.1821 9.63689 21.7821 10.7339 21.1144 11.6006C17.9825 9.77143 15.4954 6.90712 14.089 3.45651C15.1712 3.45442 16.2533 3.45275 17.3352 3.45274ZM13.0884 0C13.3031 1.20188 13.6416 2.35876 14.089 3.45651C13.4214 3.4578 12.7538 3.45893 12.0862 3.46027C12.5344 2.36138 12.8735 1.20328 13.0884 0Z" fill="#FFD619"/>
</svg>
