<svg width="200" height="41" viewBox="0 0 200 41" fill="none" xmlns="http://www.w3.org/2000/svg">
<path d="M196.876 30.2662V9.94312H199.69V30.2662H196.876Z" fill="white"/>
<path d="M178.736 30.2662V9.94312H193.134V12.3724H181.551V18.89H192.097V21.2897H181.551V30.2662H178.736Z" fill="white"/>
<path d="M165.07 30.2662V21.8229L157.072 9.94312H160.301L166.492 19.3344H166.641L172.803 9.94312H175.884L167.914 21.8229V30.2662H165.07Z" fill="white"/>
<path d="M146.913 30.2662V12.402H139.951V9.94312H156.749V12.402H149.728V30.2662H146.913Z" fill="white"/>
<path d="M129.468 30.6215C128.362 30.6215 127.295 30.5129 126.268 30.2956C125.261 30.0784 124.362 29.7327 123.572 29.2587C122.782 28.765 122.15 28.133 121.676 27.3627C121.222 26.5924 120.995 25.6444 120.995 24.5187C120.995 24.4199 120.995 24.3212 120.995 24.2224C121.014 24.1237 121.024 24.0249 121.024 23.9261H123.868C123.868 23.9854 123.858 24.0842 123.839 24.2224C123.839 24.3409 123.839 24.4495 123.839 24.5483C123.839 25.3383 124.076 26.0098 124.55 26.5628C125.024 27.1158 125.675 27.5306 126.505 27.8071C127.354 28.0638 128.312 28.1922 129.379 28.1922C129.853 28.1922 130.346 28.1626 130.86 28.1033C131.393 28.0441 131.897 27.9453 132.371 27.8071C132.865 27.6491 133.299 27.4516 133.674 27.2146C134.069 26.9578 134.376 26.6517 134.593 26.2962C134.83 25.9209 134.948 25.4667 134.948 24.9334C134.948 24.2619 134.751 23.7089 134.356 23.2744C133.981 22.8201 133.477 22.4547 132.845 22.1782C132.213 21.882 131.492 21.6252 130.682 21.408C129.892 21.171 129.073 20.9438 128.223 20.7266C127.374 20.5093 126.544 20.2625 125.735 19.986C124.945 19.6897 124.234 19.3342 123.602 18.9194C122.97 18.4849 122.456 17.9517 122.061 17.3197C121.686 16.6877 121.498 15.9174 121.498 15.0089C121.498 14.1596 121.666 13.3992 122.002 12.7277C122.357 12.0562 122.871 11.4933 123.542 11.0391C124.234 10.565 125.083 10.2095 126.09 9.97253C127.097 9.71578 128.253 9.5874 129.556 9.5874C130.623 9.5874 131.61 9.7059 132.519 9.94291C133.447 10.1602 134.257 10.5058 134.948 10.9798C135.659 11.4341 136.212 12.0167 136.607 12.7277C137.002 13.4387 137.2 14.2979 137.2 15.3051V15.6606H134.415V15.2162C134.415 14.5447 134.208 13.972 133.793 13.498C133.378 13.024 132.805 12.6586 132.075 12.4018C131.364 12.1451 130.554 12.0167 129.645 12.0167C128.46 12.0167 127.473 12.1352 126.683 12.3722C125.893 12.5895 125.3 12.9153 124.905 13.3498C124.53 13.7646 124.342 14.2386 124.342 14.7719C124.342 15.3841 124.53 15.8976 124.905 16.3124C125.3 16.7272 125.814 17.0728 126.446 17.3493C127.078 17.606 127.799 17.843 128.608 18.0603C129.418 18.2776 130.238 18.5047 131.067 18.7417C131.917 18.9589 132.736 19.2157 133.526 19.5119C134.336 19.7885 135.057 20.144 135.689 20.5785C136.341 20.9932 136.854 21.5265 137.229 22.1782C137.605 22.8103 137.792 23.5904 137.792 24.5187C137.792 25.9604 137.437 27.1356 136.726 28.0441C136.015 28.9329 135.037 29.5846 133.793 29.9994C132.549 30.4141 131.107 30.6215 129.468 30.6215Z" fill="white"/>
<path d="M107.778 30.6215C105.665 30.6215 103.848 30.2364 102.327 29.4661C100.826 28.6959 99.6609 27.5306 98.8313 25.9703C98.0216 24.41 97.6167 22.4547 97.6167 20.1045C97.6167 17.7344 98.0216 15.7791 98.8313 14.2386C99.6609 12.6783 100.826 11.5131 102.327 10.7428C103.848 9.97253 105.665 9.5874 107.778 9.5874C109.892 9.5874 111.699 9.97253 113.2 10.7428C114.721 11.5131 115.886 12.6783 116.696 14.2386C117.525 15.7791 117.94 17.7344 117.94 20.1045C117.94 22.4547 117.525 24.41 116.696 25.9703C115.886 27.5306 114.721 28.6959 113.2 29.4661C111.699 30.2364 109.892 30.6215 107.778 30.6215ZM107.778 28.1922C108.884 28.1922 109.882 28.0441 110.77 27.7478C111.679 27.4516 112.439 26.9875 113.052 26.3554C113.684 25.7037 114.168 24.8939 114.503 23.9261C114.839 22.9386 115.007 21.7734 115.007 20.4303V19.8082C115.007 18.4454 114.839 17.2802 114.503 16.3124C114.168 15.3249 113.684 14.5151 113.052 13.8831C112.439 13.2313 111.679 12.7573 110.77 12.4611C109.882 12.1648 108.884 12.0167 107.778 12.0167C106.653 12.0167 105.645 12.1648 104.756 12.4611C103.868 12.7573 103.107 13.2313 102.475 13.8831C101.843 14.5151 101.359 15.3249 101.024 16.3124C100.708 17.2802 100.55 18.4454 100.55 19.8082V20.4303C100.55 21.7734 100.708 22.9386 101.024 23.9261C101.359 24.8939 101.843 25.7037 102.475 26.3554C103.107 26.9875 103.868 27.4516 104.756 27.7478C105.645 28.0441 106.653 28.1922 107.778 28.1922Z" fill="white"/>
<path d="M84.4306 30.6215C82.3173 30.6215 80.5003 30.2364 78.9795 29.4661C77.4785 28.6959 76.3132 27.5306 75.4837 25.9703C74.6739 24.41 74.269 22.4547 74.269 20.1045C74.269 17.7344 74.6739 15.7791 75.4837 14.2386C76.3132 12.6783 77.4785 11.5131 78.9795 10.7428C80.5003 9.97253 82.3173 9.5874 84.4306 9.5874C86.5439 9.5874 88.3511 9.97253 89.8521 10.7428C91.3729 11.5131 92.5382 12.6783 93.3479 14.2386C94.1774 15.7791 94.5922 17.7344 94.5922 20.1045C94.5922 22.4547 94.1774 24.41 93.3479 25.9703C92.5382 27.5306 91.3729 28.6959 89.8521 29.4661C88.3511 30.2364 86.5439 30.6215 84.4306 30.6215ZM84.4306 28.1922C85.5366 28.1922 86.534 28.0441 87.4228 27.7478C88.3313 27.4516 89.0917 26.9875 89.704 26.3554C90.336 25.7037 90.8199 24.8939 91.1556 23.9261C91.4914 22.9386 91.6593 21.7734 91.6593 20.4303V19.8082C91.6593 18.4454 91.4914 17.2802 91.1556 16.3124C90.8199 15.3249 90.336 14.5151 89.704 13.8831C89.0917 13.2313 88.3313 12.7573 87.4228 12.4611C86.534 12.1648 85.5366 12.0167 84.4306 12.0167C83.3048 12.0167 82.2976 12.1648 81.4088 12.4611C80.52 12.7573 79.7597 13.2313 79.1276 13.8831C78.4956 14.5151 78.0117 15.3249 77.676 16.3124C77.36 17.2802 77.202 18.4454 77.202 19.8082V20.4303C77.202 21.7734 77.36 22.9386 77.676 23.9261C78.0117 24.8939 78.4956 25.7037 79.1276 26.3554C79.7597 26.9875 80.52 27.4516 81.4088 27.7478C82.2976 28.0441 83.3048 28.1922 84.4306 28.1922Z" fill="white"/>
<path d="M54.6213 30.2662V9.94312H65.1088C66.2741 9.94312 67.2813 10.1505 68.1306 10.5653C68.9799 10.9603 69.6316 11.5231 70.0859 12.2539C70.5599 12.9847 70.7969 13.8537 70.7969 14.861C70.7969 15.6312 70.6587 16.3422 70.3822 16.994C70.1056 17.6457 69.7205 18.1889 69.2268 18.6234C68.733 19.0579 68.1701 19.3838 67.5381 19.601V19.7195C68.2491 19.8775 68.891 20.1639 69.4638 20.5787C70.0365 20.9934 70.4908 21.5464 70.8265 22.2377C71.182 22.9092 71.3598 23.7387 71.3598 24.7262C71.3598 26.0495 71.0833 27.116 70.5303 27.9258C69.9773 28.7356 69.2366 29.3281 68.3084 29.7033C67.3801 30.0786 66.3136 30.2662 65.1088 30.2662H54.6213ZM57.4358 27.8369H65.0792C66.0864 27.8369 66.9061 27.5802 67.5381 27.0667C68.1701 26.5334 68.4861 25.6545 68.4861 24.43C68.4861 23.6795 68.3479 23.0573 68.0714 22.5636C67.7949 22.0501 67.39 21.6748 66.8567 21.4378C66.3234 21.1811 65.6519 21.0527 64.8422 21.0527H57.4358V27.8369ZM57.4358 18.653H64.5755C65.2471 18.653 65.8297 18.5246 66.3234 18.2679C66.8172 17.9914 67.2023 17.6161 67.4788 17.1421C67.7751 16.6484 67.9232 16.0953 67.9232 15.4831C67.9232 14.4166 67.6368 13.6364 67.0641 13.1427C66.4913 12.6292 65.7309 12.3724 64.7829 12.3724H57.4358V18.653Z" fill="white"/>
<path d="M21.6395 35.0677C20.9534 36.7009 20.4342 38.4219 20.1049 40.2097C19.7755 38.4219 19.2564 36.7009 18.5703 35.0677H21.6395ZM6.13656 22.0835C11.7194 24.7211 16.1703 29.3552 18.5703 35.0677H12.9346C9.18017 35.0677 6.13656 32.0242 6.13656 28.2698V22.0835ZM32.3087 23.0041C33.4094 24.3613 34.0735 26.0214 34.0735 27.5925C34.0735 31.6405 30.6187 35.0677 26.6187 35.0677H21.6395C23.7809 29.9708 27.5547 25.732 32.3087 23.0041ZM32.4334 17.2762C34.8107 18.6223 37.4295 19.5925 40.2098 20.1047C37.3809 20.6258 34.719 21.6211 32.3087 23.0041C30.9433 21.3205 28.9056 20.1034 26.6282 20.1034C28.9757 20.1034 31.0688 18.9934 32.4334 17.2762ZM6.13656 22.0835C4.21273 21.1746 2.15498 20.5017 0 20.1047C2.15501 19.7077 4.21271 19.0349 6.13656 18.1259V22.0835ZM18.5653 5.15321C16.1642 10.8605 11.7156 15.49 6.13656 18.1259V11.9584C6.13656 8.20405 9.18017 5.16046 12.9346 5.16046C14.8113 5.16046 16.6883 5.15688 18.5653 5.15321ZM26.6282 5.142C30.7402 5.142 34.0735 8.47534 34.0735 12.5872C34.0735 14.3517 33.4591 15.9854 32.4334 17.2762C27.6225 14.5521 23.8023 10.2864 21.6418 5.1476C23.3041 5.14449 24.9663 5.14201 26.6282 5.142ZM20.1049 0C20.4346 1.7899 20.9545 3.51278 21.6418 5.1476C20.6163 5.14952 19.5908 5.1512 18.5653 5.15321C19.2538 3.51669 19.7748 1.79198 20.1049 0Z" fill="#FFD619"/>
</svg>
