<svg width="34" height="34" viewBox="0 0 34 34" fill="none" xmlns="http://www.w3.org/2000/svg">
<g clip-path="url(#clip0_1_1620)">
<path d="M16.6927 0C13.3912 0 10.1639 0.978992 7.41885 2.81318C4.6738 4.64736 2.53429 7.25436 1.27089 10.3045C0.00747673 13.3546 -0.323089 16.7109 0.320991 19.9489C0.965072 23.1869 2.55487 26.1612 4.88934 28.4957C7.22382 30.8302 10.1981 32.42 13.4361 33.0641C16.6741 33.7081 20.0304 33.3776 23.0806 32.1142C26.1307 30.8508 28.7377 28.7113 30.5719 25.9662C32.4061 23.2212 33.3851 19.9938 33.3851 16.6924C33.3851 12.2653 31.6264 8.01952 28.496 4.88909C25.3655 1.75866 21.1198 0 16.6927 0V0ZM26.1795 12.6654L15.705 24.5448C15.536 24.7352 15.331 24.8904 15.1018 25.0014C14.8727 25.1124 14.6238 25.177 14.3696 25.1916H14.2444C13.77 25.1945 13.3114 25.021 12.9577 24.7048L7.35186 19.7318C6.96634 19.3896 6.73253 18.9083 6.70188 18.3938C6.67123 17.8792 6.84624 17.3735 7.18842 16.988C7.5306 16.6025 8.01191 16.3687 8.52647 16.338C9.04104 16.3074 9.5467 16.4824 9.93223 16.8245L14.1053 20.5038L23.2931 10.0711C23.6344 9.68463 24.1152 9.44958 24.6297 9.41762C25.1443 9.38566 25.6505 9.55942 26.0369 9.90068C26.4234 10.2419 26.6584 10.7227 26.6904 11.2373C26.7223 11.7519 26.5486 12.258 26.2073 12.6445L26.1795 12.6654Z" fill="#E9C007"/>
</g>
<defs>
<clipPath id="clip0_1_1620">
<rect width="33.3848" height="33.3848" fill="white"/>
</clipPath>
</defs>
</svg>
