<svg width="25" height="40" viewBox="0 0 25 40" fill="none" xmlns="http://www.w3.org/2000/svg">
<path d="M19.4071 20L14.7922 18.4296V8.38518H15.8924C18.368 8.38518 20.3851 10.4889 20.3851 13.0667C20.3851 14.2815 21.4242 15.2889 22.6773 15.2889C23.9303 15.2889 24.9694 14.2815 24.9694 13.0667C24.9694 8.02963 20.9046 3.94074 15.8924 3.94074H14.7922V2.22222C14.7922 1.00741 13.7531 0 12.5 0C11.2469 0 10.2078 1.00741 10.2078 2.22222V3.94074H8.22127C3.69805 3.94074 0 7.64444 0 12.1778C0 17.4815 3.17848 19.1704 5.59291 20L10.2078 21.5704V31.5852H9.10758C6.63203 31.5852 4.61491 29.4815 4.61491 26.9037C4.61491 25.6889 3.5758 24.6815 2.32274 24.6815C1.06968 24.6815 0.030563 25.6889 0.030563 26.9037C0.030563 31.9407 4.09536 36.0296 9.10758 36.0296H10.2078V37.7778C10.2078 38.9926 11.2469 40 12.5 40C13.7531 40 14.7922 38.9926 14.7922 37.7778V36.0593H16.7787C21.302 36.0593 25 32.3556 25 27.8222C24.9694 22.4889 21.791 20.8 19.4071 20ZM7.12103 15.8222C5.56235 15.2889 4.61491 14.7852 4.61491 12.2074C4.61491 10.1037 6.23472 8.41481 8.25183 8.41481H10.2384V16.8889L7.12103 15.8222ZM16.7787 31.6148H14.7922V23.1407L17.879 24.1778C19.4377 24.7111 20.3851 25.2148 20.3851 27.7926C20.3851 29.8963 18.7653 31.6148 16.7787 31.6148Z" fill="#E9C007"/>
</svg>
