<svg width="85" height="85" viewBox="0 0 85 85" fill="none" xmlns="http://www.w3.org/2000/svg">
<circle cx="42.0919" cy="42.0919" r="42.0919" fill="#E9C007"/>
<path d="M48.0003 53.9999C47.4253 53.9999 47.042 53.8083 46.6586 53.4249C45.892 52.6583 45.892 51.5083 46.6586 50.7416L56.242 41.1583C57.0086 40.3916 58.1586 40.3916 58.9253 41.1583C59.692 41.9249 59.692 43.0749 58.9253 43.8416L49.3419 53.4249C48.9586 53.8083 48.5753 53.9999 48.0003 53.9999Z" fill="black"/>
<path d="M57.5836 44.4167C57.0086 44.4167 56.6253 44.225 56.242 43.8417L46.6586 34.2583C45.892 33.4917 45.892 32.3417 46.6586 31.575C47.4253 30.8083 48.5753 30.8083 49.3419 31.575L58.9253 41.1583C59.692 41.925 59.692 43.075 58.9253 43.8417C58.542 44.225 58.1586 44.4167 57.5836 44.4167Z" fill="black"/>
<path d="M57.5833 44.4166H26.9167C25.7667 44.4166 25 43.6499 25 42.4999C25 41.3499 25.7667 40.5833 26.9167 40.5833H57.5833C58.7333 40.5833 59.5 41.3499 59.5 42.4999C59.5 43.6499 58.7333 44.4166 57.5833 44.4166Z" fill="black"/>
</svg>
