<svg width="40" height="40" viewBox="0 0 40 40" fill="none" xmlns="http://www.w3.org/2000/svg">
<path opacity="0.4" d="M29.2167 12.9497C29.1 12.933 28.9833 12.933 28.8667 12.9497C26.2833 12.8663 24.2333 10.7497 24.2333 8.14967C24.2333 5.49967 26.3833 3.33301 29.05 3.33301C31.7 3.33301 33.8667 5.48301 33.8667 8.14967C33.85 10.7497 31.8 12.8663 29.2167 12.9497Z" fill="#E9C007"/>
<path opacity="0.4" d="M34.65 24.4997C32.7834 25.7497 30.1667 26.2163 27.75 25.8997C28.3834 24.533 28.7167 23.0164 28.7334 21.4164C28.7334 19.7497 28.3667 18.1664 27.6667 16.783C30.1334 16.4497 32.75 16.9163 34.6334 18.1663C37.2667 19.8997 37.2667 22.7497 34.65 24.4997Z" fill="#E9C007"/>
<path opacity="0.4" d="M10.7333 12.9497C10.85 12.933 10.9666 12.933 11.0833 12.9497C13.6666 12.8663 15.7166 10.7497 15.7166 8.14967C15.7166 5.49967 13.5666 3.33301 10.9 3.33301C8.24998 3.33301 6.08331 5.48301 6.08331 8.14967C6.09998 10.7497 8.14997 12.8663 10.7333 12.9497Z" fill="#E9C007"/>
<path opacity="0.4" d="M10.9167 21.4167C10.9167 23.0333 11.2667 24.5667 11.9 25.95C9.55001 26.2 7.10001 25.7 5.30001 24.5167C2.66668 22.7667 2.66668 19.9167 5.30001 18.1667C7.08335 16.9667 9.60001 16.4833 11.9667 16.75C11.2833 18.15 10.9167 19.7334 10.9167 21.4167Z" fill="#E9C007"/>
<path d="M20.2 26.45C20.0667 26.4333 19.9167 26.4333 19.7667 26.45C16.7 26.35 14.25 23.8333 14.25 20.7333C14.25 17.5667 16.8 15 19.9833 15C23.15 15 25.7167 17.5667 25.7167 20.7333C25.7167 23.8333 23.2833 26.35 20.2 26.45Z" fill="#E9C007"/>
<path d="M14.7833 29.9004C12.2666 31.5837 12.2666 34.3504 14.7833 36.0171C17.65 37.9337 22.35 37.9337 25.2167 36.0171C27.7333 34.3337 27.7333 31.5671 25.2167 29.9004C22.3667 27.9837 17.6666 27.9837 14.7833 29.9004Z" fill="#E9C007"/>
</svg>
