<svg width="56" height="56" viewBox="0 0 56 56" fill="none" xmlns="http://www.w3.org/2000/svg">
<path d="M49.0557 46.2565L46.4125 37.2965C45.7095 34.9761 44.2726 32.9466 42.3176 31.5127C40.3627 30.0787 37.9952 29.3179 35.5709 29.3445H34.5405C36.3841 28.0696 37.8858 26.3607 38.9132 24.3684C39.9406 22.3762 40.4621 20.1618 40.4317 17.9205C40.5651 14.4972 39.3364 11.1605 37.0146 8.6414C34.6928 6.12227 31.4673 4.62605 28.0445 4.48047C24.6277 4.63759 21.4113 6.13805 19.0955 8.65523C16.7797 11.1724 15.552 14.5025 15.6797 17.9205C15.6537 20.1635 16.1795 22.3785 17.2107 24.3705C18.2418 26.3626 19.7469 28.0707 21.5933 29.3445H20.5405C18.1161 29.3179 15.7487 30.0787 13.7937 31.5127C11.8387 32.9466 10.4018 34.9761 9.69886 37.2965L7.03326 46.2565C6.87247 46.8166 6.91732 47.4157 7.15969 47.9457C7.40207 48.4756 7.82598 48.9014 8.35486 49.1461C14.5983 51.8019 21.2666 53.3191 28.0445 53.6261H28.1565C34.8959 53.3021 41.5244 51.7853 47.7341 49.1461C48.266 48.9051 48.6929 48.4798 48.9358 47.9487C49.1787 47.4176 49.2213 46.8165 49.0557 46.2565ZM27.8205 33.0853L26.0061 31.5173H29.6349L27.8205 33.0853ZM33.0397 31.5173H35.2797L32.2333 37.3861L29.3885 34.7429L33.0397 31.5173ZM28.0445 6.72047C30.1144 6.77333 32.1191 7.4554 33.7918 8.67589C35.4645 9.89638 36.7257 11.5974 37.4077 13.5525C36.3861 13.7432 35.338 13.7432 34.3165 13.5525C32.9006 13.2163 31.5914 12.531 30.5085 11.5589C30.3037 11.3895 30.0462 11.2969 29.7805 11.2969C29.5147 11.2969 29.2573 11.3895 29.0525 11.5589C27.6194 12.7255 25.9308 13.5366 24.1244 13.9259C22.318 14.3152 20.4452 14.2716 18.6589 13.7989C19.3037 11.796 20.5514 10.0411 22.2313 8.77416C23.9113 7.50719 25.9415 6.78995 28.0445 6.72047ZM17.9197 17.9205C17.9053 17.1706 17.9578 16.421 18.0765 15.6805C19.2764 15.9906 20.5106 16.1487 21.7501 16.1509C23.1102 16.2019 24.4702 16.0433 25.7821 15.6805C27.1901 15.2622 28.5214 14.6192 29.7245 13.7765C30.9277 14.7018 32.3194 15.3518 33.8013 15.6805C35.2115 15.9811 36.6694 15.9811 38.0797 15.6805C38.1968 16.3687 38.2568 17.0655 38.2589 17.7637C38.3929 20.5931 37.4004 23.3603 35.4985 25.4595C33.5967 27.5587 30.9405 28.8187 28.1117 28.9637C25.3051 28.8242 22.6653 27.5893 20.7595 25.5243C18.8537 23.4593 17.8341 20.7292 17.9197 17.9205ZM22.6461 31.5845L26.4093 34.8549L23.8109 37.4309L20.4733 31.5173H22.6013L22.6461 31.5845ZM9.20606 46.9509L11.8717 37.9909C12.3206 36.5434 13.1295 35.2334 14.2224 34.1835C15.3154 33.1336 16.6569 32.3781 18.1213 31.9877L22.6013 39.8949C22.6946 40.0392 22.8161 40.1632 22.9585 40.2594C23.101 40.3556 23.2613 40.4221 23.4301 40.4549H23.5869C23.7337 40.4567 23.8794 40.4277 24.0144 40.3698C24.1494 40.312 24.2708 40.2265 24.3709 40.1189L26.8797 37.4085L26.9917 51.2965C20.9063 50.8607 14.9347 49.4227 9.31806 47.0405C9.31806 47.0405 9.13886 47.0405 9.18366 46.8837L9.20606 46.9509ZM46.7933 47.0405C41.2037 49.3471 35.2838 50.7533 29.2541 51.2069L29.1197 37.6325L31.6957 40.0293C31.9072 40.2132 32.177 40.3164 32.4573 40.3205H32.6589C32.8269 40.2939 32.9859 40.2271 33.1225 40.1257C33.259 40.0243 33.3689 39.8913 33.4429 39.7381L37.5869 31.7861C39.1478 32.1118 40.5935 32.8482 41.7748 33.9193C42.9561 34.9903 43.8302 36.3572 44.3069 37.8789L46.9501 46.8389C46.9512 46.8854 46.9362 46.9309 46.9077 46.9677C46.8791 47.0044 46.8386 47.0301 46.7933 47.0405Z" fill="white"/>
</svg>
